<?xml version="1.0" encoding="UTF-8"?><svg id="Layer_1" xmlns="http://www.w3.org/2000/svg" viewBox="0 0 371.34 208.78"><defs><style>.cls-1{fill:#8b0000;fill-rule:evenodd;}</style></defs><path class="cls-1" d="m122.87,137.85c3.99,28.26,26.6,50.54,55.02,54.01l3.48,11.55,5.32-11.09c31.53-.5,57.48-24.01,61.77-54.48h16.52c-4.49,37.55-35.3,70.93-79.32,70.93s-74.83-33.39-79.32-70.93h16.52Zm62.8-72.37c-26.8,0-49.72,16.63-59.01,40.13h-17.49c2.89-9.48,7.68-18.69,14.61-27.17l-8.13-25.91c-21.69-70.05,161.74-70.03,140.05,0l-8.13,25.91c6.93,8.48,11.71,17.7,14.61,27.18h-17.49c-9.29-23.5-32.2-40.13-59.01-40.13Zm0-16.44c16.29,0,31.44,4.88,44.08,13.26l5.02-16.21c6.81-22-49.56-29.12-79.38-19.89-12.79,3.96-21.65,10.73-18.81,19.89l5.02,16.21c12.63-8.38,27.79-13.26,44.08-13.26Z"/><path class="cls-1" d="m49.92,81.23l-2.78,9.01h15.22c.75-3.31,1.62-6.34,2.58-9.01h-15.02Zm-22.12,9.73l-2.11,6.84h11.57c.57-2.52,1.23-4.82,1.96-6.84h-11.41Zm-2.57,8.86c-.16.73-.31,1.47-.44,2.21h11.63c.13-.75.26-1.49.41-2.21h-11.6Zm-13.72.66l-1.46,4.73h7.99c.39-1.74.85-3.33,1.35-4.73h-7.88Zm-1.78,6.12c-.11.5-.21,1.01-.31,1.53h8.03c.09-.52.19-1.03.28-1.53h-8.01Zm36.81-13.71c-.21.96-.41,1.93-.58,2.91h15.31c.17-.99.35-1.96.54-2.91h-15.26Zm274.87-11.66l2.78,9.01h-15.22c-.75-3.31-1.62-6.34-2.58-9.01h15.02Zm22.12,9.73l2.11,6.84h-11.57c-.57-2.52-1.23-4.82-1.96-6.84h11.41Zm2.57,8.86c.16.73.31,1.47.44,2.21h-11.63c-.13-.75-.27-1.49-.41-2.21h11.6Zm13.72.66l1.46,4.73h-7.99c-.39-1.74-.85-3.33-1.35-4.73h7.88Zm1.78,6.12c.11.5.21,1.01.31,1.53h-8.03c-.09-.52-.18-1.03-.28-1.53h8.01Zm-36.81-13.71c.21.96.4,1.93.58,2.91h-15.31c-.17-.99-.35-1.96-.54-2.91h15.27Zm-31.33,9.12c-2.22,0-4.19,3.23-5.41,8.18h-6.34c1.4-22.27,6.76-38.85,13.17-38.85,7.47,0,13.52,22.56,13.52,50.39s-6.06,50.39-13.52,50.39c-5.96,0-11.01-14.35-12.82-34.28h-5.21c2.34,22.9,9.53,39.57,18.02,39.57h17.2c4.67,0,8.94-5.04,12.24-13.38h12.99c5.99,0,11.11-10.89,13.25-26.34.08,4.88-.2,9.36-.8,13.25h5.8c4.24,0,7.85-7.89,9.26-18.97h2.9c4.82,0,4.82-20.51,0-20.51h-2.9c-1.41-11.08-5.02-18.97-9.26-18.97h-7.91c-2.6-8.07-6.28-13.1-10.34-13.1h-10.58c1.67,6.11,2.69,13.76,2.92,22.34-2.71-20.89-9.56-35.71-17.57-35.71h-17.2c-9.06,0-16.62,18.93-18.42,44.15h-64.25c1.08,7.96-5.17,15.53-7.19,23.08h83.03c3.74,15.32,12.07,7.73,12.07-11.54,0-10.89-2.98-19.72-6.66-19.72Zm-220.67,6.88c2.77-9.59,7.91-9.16,10.47,1.3h6.34c-1.4-22.27-6.76-38.85-13.16-38.85-7.47,0-13.52,22.56-13.52,50.39s6.05,50.39,13.52,50.39c5.95,0,11.01-14.35,12.81-34.28h5.21c-2.34,22.9-9.52,39.57-18.02,39.57h-17.2c-4.68,0-8.95-5.04-12.24-13.38h-12.99c-5.99,0-11.12-10.89-13.25-26.34-.08,4.88.2,9.36.8,13.25h-5.81c-4.23,0-7.85-7.89-9.25-18.97h-2.9c-4.82,0-4.82-20.51,0-20.51h2.9c1.41-11.08,5.02-18.97,9.25-18.97h7.91c2.6-8.07,6.28-13.1,10.35-13.1h10.58c-1.67,6.11-2.69,13.76-2.93,22.34,2.71-20.89,9.56-35.71,17.58-35.71h17.2c9.06,0,16.62,18.93,18.42,44.15h62.81c-3.22,9.87-3.73,12.07-3.88,23.08h-70.52c-2.46,10.07-7.33,10.84-10.15,2.31-1.49-4.51-1.92-8.77-1.92-13.85,0-4.57.43-8.74,1.6-12.84Z"/><path class="cls-1" d="m198.2,122.07c.5,1.69,1.83,2.94,4.76,3.46,1.87.33,3.71,0,4.7-2.33.7-1.65.61-4.16,1.43-7.84.38-2.73.96-4.48.81-6.5-.07-.94-.3-1.93-.77-3.11-.45-.33-.89-.68-1.34-1.02-3.83-2.91-5.5-3-9.46-.91.88,1.57,1.21,3.85,1.24,6.34.02,2.98.85,2.59,2.09,4.84-.75-.54-1.42-1.02-2.22-1.49-.25,3.23-.82,6.43-1.24,8.56m-11.29,4.75c1.01,1.3,3.29,1.56,5.42,1.51,1.86-.04,3.46-.76,3.93-3.01.97-4.6,4.62-20.44-.93-22.61-3.83-1.5-5.97-2.26-10.03,0,.73,1.57,1.15,4.46,1.38,6.52.31,2.76.47,4.29,3.26,6.67-1.11-.23-2.21-.09-2.93-1.1.09,4.87-.1,7.9-.11,12.01Zm-16.44-20.64c.44-2.94-.03-3.47-1.97-4.61-2.78-1.63-6.99-.7-7.7,2.74-.37,1.81-.35,2.57,1.18,4.78,2.73-1.06,5.69-2.1,8.49-2.91Zm25.07,67.91l4.44,26.03-5.27.25.82-26.27Zm-18.58-58.39c1.65.53,1.99.89,3.45,1.89-2.23-.26-3.98-1-5.8.12.37,1.97.88,4.34,1.34,6.59.88,4.25,2.51,5.35,5.26,5.14,5.31-.4,4.34-1.13,4.46-5.69.18-6.7.31-15.98-1.31-20.07-.94-2.37-2.69-4-6.13-3.86-4.94.21-5.31.64-5.42,5.7,1.29-.36,5.09-1.83,5.53.76.63,3.64.69,6.88-1.38,9.42Zm41.6,62.37v.06s-1.49-1.41-1.49-1.41h0c-5.35-5.87-1.59-12.28-2.92-16.86-4.86-.77-6.71-.89-11.69-.98,5.71-1.62,12.23-1.74,13.87-7.82,2.06-7.61.87-8.93-.76-21.56-1.43.76-2.77,1.39-4.05,1.92.28.27.55.55.83.82-1.77,0-3.74.24-5.76.61l2.5,2.63c-8.06-2.67-7.25-1.47-15.43.57,3.74,1.65,6.1,4.32,7.61,6.79-8.4-6.6-10.3-7.46-24.67-6.09-4.24-3.01-3.51-3.31-7.01-4.36-2.86.78-6.45,1.34-9.32,2.12,7.59-3.47,9.76-5.95,7.27-15.09,6.93-2.62,10.37-3.72,9.81-10.91-.16-1.99,0-2.86-2.85-2.13-2.21.57-4.41,1.18-6.59,1.9.66,3.09,1.67,3.18,4.15,5.08-1.98-.81-4.26-1.07-4.94-3.17-.27-.84-.55-1.46-1.39-1.15-9.97,3.68-9.79,3.3-11.1,15.86-2.81,26.84,9.49,22.97,32.01,35.15l-5.51,6.5c.37,8.87.23,24.81.23,36.88l.08,4.61-10.1-1.48.16.68-.81-.12c0-14.14,2.19-29.21,1.73-42.91-4.76-2.34-17.8-9.62-20.2-13.98-1.33-2.41-2.96-5.14-2.94-7.97.04-5.65-.14-14.89.92-20.3,1.08-5.54,3.83-11.75,5.48-16.99,1.74-6.22,10.18-8.57,14.38-6.11,1.75,1.03,2.01-1.91,8.01-2.16,2.69-.11,5.23.63,7.11,2.55,4.16-1.88,7.06-1.11,11.27.54.5.19.96.44,1.4.74,4.64-2.26,7.71-1.42,11.82,1.71,2.72,2.06,4.4,3.71,4.66,7.33.72,9.61,5.58,16.29,6.71,28.22.28,3.01.98,7.81.95,10.63-.04,3.61-1.09,7.15-2.21,10.56l-.63,19.65-.63-.57Z"/><path class="cls-1" d="m177.28,107.59c-.12-1.32-.41-1.82-2.78-1.21-2.21.56-4.41,1.18-6.59,1.89.66,3.09,1.67,3.18,4.15,5.08-2.85-5.04.87-4.9,5.22-5.76m-6.66-2.81c.19-4.65-8.74-5.71-9.82-.47-.28,1.39-.34,2.16.34,3.43.2-6.18,7.2-5.67,9.48-2.96Zm13.74-1.1c-.94-2.37-2.69-4-6.13-3.86-4.94.21-5.31.64-5.42,5.7.09-.02.18-.05.29-.08.31-2.84,1.37-3.16,5.5-3.33,3.71-.15,5.55,1.68,6.49,4.32-.19-1.06-.43-1.99-.73-2.74Zm13.97,7.47c.08-4.02-.61-7.5-3-8.44-3.83-1.5-5.97-2.26-10.03,0,.3.65.55,1.53.76,2.48,3.64-1.82,5.75-1.07,9.37.35,1.81.71,2.64,2.86,2.9,5.61Zm9.46-6.41c-3.83-2.91-5.5-3-9.46-.91.34.6.6,1.31.78,2.09,3.25-1.53,4.95-1.21,8.42,1.43,1.34,1.02,1.89,1.27,2.11,4.12.01.17.02.35.02.52.28-1.65.38-5.03-.54-6.23-.45-.33-.89-.68-1.34-1.02Zm-30.23,34.3c12.67,0,14.96,1.51,24.04,8.12-3.79-2.08-9.92-5.37-15.67-5.06.11.73,2.54,2.69,2.64,3.43-8-5.1-7.82-3.08-12.01-4.63-4.01-1.49-7.72-3.37-11.34-3.99,6.15-.68,7.46-1.4,12.34,2.14Zm3.83,54.37l2.54-20.89c.95,3.48,3.06,12.28,3.08,12.15.71-4.29-1.09-18.09-1.41-23.38l-4.46,5.26c.27,6.56.27,17,.25,26.86Zm34.94-42.34c1.83-6.78,1.09-8.57-.24-17.79h-3.75c2.69,9.73,3.45,19.3-6.28,24.73,4.6-1.05,8.96-2.12,10.27-6.94Zm17.5-63.42c-25.33-29.53-71.01-29.53-96.33,0,28.21-19.75,68.12-19.75,96.33,0Zm-168.97,8.04c5.22-32.17,17.73-32.51,23.06-.54-6.58-19.3-16.62-18.9-23.06.54Zm241.6,0c-5.22-32.17-17.72-32.51-23.07-.54,6.59-19.3,16.62-18.9,23.07.54Zm-279.45-2.19l.78-2.53h11.41c-.32.9-.63,1.85-.93,2.84l-11.27-.31Zm21.76-8.54l1.15-3.72h15.02c-.4,1.13-.79,2.32-1.17,3.57l-15,.15Zm-37.88,17.5l.6-1.96h7.88c-.21.6-.42,1.24-.62,1.9-2.14.04-5.74.09-7.87.06Zm333.42-8.95l-.78-2.53h-11.41c.32.9.63,1.85.92,2.84l11.27-.31Zm-21.76-8.54l-1.15-3.72h-15.02c.4,1.13.79,2.32,1.17,3.57l15,.15Zm37.88,17.5l-.61-1.96h-7.88c.22.6.43,1.24.62,1.9,2.14.04,5.74.09,7.87.06Zm-65.74,61.96c-4.51,0-8.39-9.88-10.18-24.14,4.82,25.56,15.67,25.32,20.4-.39-1.77,14.47-5.68,24.52-10.23,24.52Zm-218.07,0c4.51,0,8.39-9.88,10.18-24.14-4.82,25.56-15.67,25.32-20.4-.39,1.77,14.47,5.68,24.52,10.22,24.52Zm90.75-53.63c-.45-.79-.47-2.17-1.64-1.74-9.56,3.53-9.79,3.33-10.95,14.37,3.19-7.02,3.68-9.39,12.59-12.63Z"/></svg>